<?xml version="1.0" encoding="UTF-8"?>
<svg xmlns="http://www.w3.org/2000/svg" xmlns:xlink="http://www.w3.org/1999/xlink" width="1080" height="1350" viewBox="0 0 1080 1350">
  <defs>
    <filter id="shadow" x="-30%" y="-30%" width="160%" height="160%">
      <feDropShadow dx="0" dy="13" stdDeviation="18" flood-color="#000000" flood-opacity=".28"/>
    </filter>
    <filter id="lightShadow" x="-30%" y="-30%" width="160%" height="160%">
      <feDropShadow dx="0" dy="5" stdDeviation="9" flood-color="#000000" flood-opacity=".18"/>
    </filter>

  </defs>

    <rect width="1080" height="1350" fill="#fff0ad"/>
    <rect x="0" y="0" width="1080" height="96" fill="#176844"/>
    <text x="540" y="64" fill="#fff0ad" font-family="Arial Black, Arial, sans-serif" font-size="32" font-weight="900" text-anchor="middle">FACTORY OWNER? LET’S PLAY A GAME.</text>
    <text x="540" y="188" fill="#155f40" font-family="Arial Black, Arial, sans-serif" font-size="83" font-weight="900" text-anchor="middle">PICK A CARD</text>
    <text x="540" y="244" fill="#155f40" font-family="Arial, Helvetica, sans-serif" font-size="25" font-weight="700" text-anchor="middle">Which leak looks most familiar on your floor?</text>
    <polygon points="880,115 933,135 978,104 992,160 1047,174 1014,219 1035,271 979,272 947,319 912,274 856,278 875,225 840,182 895,164" fill="#f1c63a" stroke="#155f40" stroke-width="5"/>
    <text x="944" y="194" fill="#155f40" font-family="Arial Black, Arial, sans-serif" font-size="26" font-weight="900" text-anchor="middle">FREE</text>
    <text x="944" y="230" fill="#155f40" font-family="Arial Black, Arial, sans-serif" font-size="24" font-weight="900" text-anchor="middle">30 SEC</text>
    <text x="540" y="402" fill="#155f40" font-family="Arial Black, Arial, sans-serif" font-size="32" font-weight="900" text-anchor="middle">(TAP A CARD)</text>

      <rect x="82" y="470" width="278" height="230" rx="8" fill="#167148" stroke="#fff7c4" stroke-width="5" filter="url(#lightShadow)"/>
      <rect x="99" y="487" width="244" height="196" rx="6" fill="none" stroke="#f5d86f" stroke-width="3"/>
      <circle cx="221" cy="548" r="43" fill="#f5d86f"/>
      <text x="221" y="562" fill="#167148" font-family="Arial Black, Arial, sans-serif" font-size="41" font-weight="900" text-anchor="middle">R</text>
      <text x="221" y="639" fill="#f5d86f" font-family="Arial Black, Arial, sans-serif" font-size="23" font-weight="900" text-anchor="middle">REWORK</text>

      <rect x="401" y="470" width="278" height="230" rx="8" fill="#f0c43b" stroke="#fff7c4" stroke-width="5" filter="url(#lightShadow)"/>
      <rect x="418" y="487" width="244" height="196" rx="6" fill="none" stroke="#145f42" stroke-width="3"/>
      <circle cx="540" cy="548" r="43" fill="#145f42"/>
      <text x="540" y="562" fill="#f0c43b" font-family="Arial Black, Arial, sans-serif" font-size="41" font-weight="900" text-anchor="middle">OT</text>
      <text x="540" y="639" fill="#145f42" font-family="Arial Black, Arial, sans-serif" font-size="23" font-weight="900" text-anchor="middle">OVERTIME</text>

      <rect x="720" y="470" width="278" height="230" rx="8" fill="#167148" stroke="#fff7c4" stroke-width="5" filter="url(#lightShadow)"/>
      <rect x="737" y="487" width="244" height="196" rx="6" fill="none" stroke="#f5d86f" stroke-width="3"/>
      <circle cx="859" cy="548" r="43" fill="#f5d86f"/>
      <text x="859" y="562" fill="#167148" font-family="Arial Black, Arial, sans-serif" font-size="41" font-weight="900" text-anchor="middle">W</text>
      <text x="859" y="639" fill="#f5d86f" font-family="Arial Black, Arial, sans-serif" font-size="23" font-weight="900" text-anchor="middle">TOO MUCH WIP</text>

      <rect x="82" y="732" width="278" height="230" rx="8" fill="#167148" stroke="#fff7c4" stroke-width="5" filter="url(#lightShadow)"/>
      <rect x="99" y="749" width="244" height="196" rx="6" fill="none" stroke="#f5d86f" stroke-width="3"/>
      <circle cx="221" cy="810" r="43" fill="#f5d86f"/>
      <text x="221" y="824" fill="#167148" font-family="Arial Black, Arial, sans-serif" font-size="41" font-weight="900" text-anchor="middle">D</text>
      <text x="221" y="901" fill="#f5d86f" font-family="Arial Black, Arial, sans-serif" font-size="23" font-weight="900" text-anchor="middle">DISCOUNTING</text>

      <rect x="401" y="732" width="278" height="230" rx="8" fill="#f0c43b" stroke="#fff7c4" stroke-width="5" filter="url(#lightShadow)"/>
      <rect x="418" y="749" width="244" height="196" rx="6" fill="none" stroke="#145f42" stroke-width="3"/>
      <circle cx="540" cy="810" r="43" fill="#145f42"/>
      <text x="540" y="824" fill="#f0c43b" font-family="Arial Black, Arial, sans-serif" font-size="41" font-weight="900" text-anchor="middle">F</text>
      <text x="540" y="901" fill="#145f42" font-family="Arial Black, Arial, sans-serif" font-size="23" font-weight="900" text-anchor="middle">FIREFIGHTING</text>

      <rect x="720" y="732" width="278" height="230" rx="8" fill="#167148" stroke="#fff7c4" stroke-width="5" filter="url(#lightShadow)"/>
      <rect x="737" y="749" width="244" height="196" rx="6" fill="none" stroke="#f5d86f" stroke-width="3"/>
      <circle cx="859" cy="810" r="43" fill="#f5d86f"/>
      <text x="859" y="824" fill="#167148" font-family="Arial Black, Arial, sans-serif" font-size="41" font-weight="900" text-anchor="middle">O</text>
      <text x="859" y="901" fill="#f5d86f" font-family="Arial Black, Arial, sans-serif" font-size="23" font-weight="900" text-anchor="middle">OWNER HOURS</text>

    <rect x="0" y="1238" width="1080" height="112" fill="#176844"/>
    <text x="540" y="1308" fill="#fff0ad" font-family="Arial Black, Arial, sans-serif" font-size="29" font-weight="900" text-anchor="middle">FREE MANUFACTURER’S ROADMAP • 30 SECONDS</text>

</svg>